<svg width="16" height="8" viewBox="0 0 16 8" fill="none" xmlns="http://www.w3.org/2000/svg">
<path d="M5.63246 8C5.17271 8 4.8 7.62729 4.8 7.16754C4.8 6.82518 4.58865 6.52126 4.27861 6.37607C3.08894 5.81896 2.10621 5.02694 1.3304 4C0.645761 3.09428 0.225364 2.09323 0.0692095 0.996839C-0.00866414 0.450072 0.447715 0 1 0H1.6H6.8H15C15.5523 0 16.0087 0.450072 15.9308 0.996839C15.7746 2.09323 15.3542 3.09428 14.6696 4C13.8938 5.02694 12.9111 5.81896 11.7214 6.37607C11.4113 6.52126 11.2 6.82518 11.2 7.16754C11.2 7.62729 10.8273 8 10.3675 8H5.63246Z" fill="white"/>
</svg>
