<svg width="154" height="203" viewBox="0 0 154 203" fill="none" xmlns="http://www.w3.org/2000/svg">
<path fill-rule="evenodd" clip-rule="evenodd" d="M117.616 129.105C134.547 115.916 145.425 95.4082 145.425 72.3755C145.425 32.5851 112.958 0.328615 72.9078 0.328613C32.8574 0.328612 0.389981 32.5851 0.389984 72.3755C0.389984 112.166 32.8574 144.422 72.9078 144.422C82.4903 144.422 91.6386 142.576 100.012 139.221L129.262 195.139C132.675 201.664 140.877 204.042 147.285 200.365C153.695 196.689 155.723 188.443 151.742 182.244L117.616 129.105ZM112.751 121.531C136.735 102.382 143.745 68.1917 127.876 40.8848C110.347 10.7186 71.5325 0.376387 41.1833 17.7847C10.8342 35.193 0.442444 73.7597 17.9727 103.926C33.8416 131.233 67.1508 142.296 95.8342 131.235L86.4332 113.263C85.1311 110.773 81.297 107.382 78.497 107.745C70.2559 108.814 62.6407 105.05 55.9271 93.4972C45.9813 76.3825 40.5524 53.6246 56.6465 44.393C72.7407 35.1614 89.8639 51.2113 99.8098 68.3261C106.524 79.8789 105.996 88.3128 100.944 94.8691C99.2279 97.0966 100.267 102.091 101.786 104.456L112.751 121.531ZM42.0331 29.5234C42.3101 29.2675 42.376 28.8546 42.1868 28.5291C41.9646 28.1467 41.472 28.0151 41.0907 28.2421C35.7087 31.4455 30.9817 35.6312 27.16 40.5811C23.1748 45.7426 20.2521 51.634 18.5587 57.9189C16.8652 64.2038 16.4342 70.7591 17.2902 77.2106C18.111 83.3966 20.0996 89.3711 23.1492 94.8207C23.366 95.2082 23.8608 95.3394 24.2473 95.1178C24.5763 94.929 24.7276 94.5371 24.6158 94.1764C17.4853 71.1566 24.2854 45.9152 42.0331 29.5234Z" fill="#2EE884"/>
</svg>
