<svg width="178" height="236" viewBox="0 0 178 236" fill="none" xmlns="http://www.w3.org/2000/svg">
<path fill-rule="evenodd" clip-rule="evenodd" d="M135.709 150.385C155.257 135.058 167.817 111.225 167.817 84.4591C167.817 38.2184 130.331 0.732952 84.0904 0.732952C37.8497 0.732951 0.364224 38.2184 0.364223 84.4591C0.364224 130.7 37.8497 168.185 84.0904 168.185C95.154 168.185 105.716 166.039 115.384 162.141L149.154 227.122C153.094 234.704 162.563 237.467 169.963 233.195C177.364 228.922 179.705 219.34 175.109 212.137L135.709 150.385ZM130.092 141.581C157.781 119.328 165.875 79.5961 147.554 47.8631C127.314 12.8068 82.5009 0.787952 47.461 21.0183C12.4211 41.2486 0.423217 86.0672 20.663 121.124C38.9847 152.858 77.4431 165.714 110.56 152.859L99.1567 130.916C97.8228 128.35 94.0987 125.008 91.2418 125.461C81.4583 127.012 72.4251 122.758 64.4843 109.005C53.0013 89.1154 46.7334 62.6684 65.315 51.9403C83.8967 41.2122 103.667 59.8638 115.15 79.753C123.09 93.5059 122.258 103.455 116.024 111.152C114.203 113.4 115.235 118.297 116.791 120.735L130.092 141.581ZM118.533 149.202L109.001 131.081C108.751 130.606 108.921 130.018 109.386 129.749L110.663 129.012C111.128 128.744 111.722 128.89 112.009 129.344L122.936 146.659C122.22 147.106 121.493 147.543 120.756 147.968C120.019 148.394 119.278 148.805 118.533 149.202ZM123.378 158.414C125.119 157.487 126.823 156.501 128.488 155.457L168.096 218.218C169.877 221.039 168.954 224.776 166.064 226.445C163.175 228.113 159.477 227.044 157.924 224.091L123.378 158.414ZM48.4428 34.6614C48.7626 34.364 48.8386 33.8843 48.6203 33.5061C48.3637 33.0617 47.7951 32.9089 47.3549 33.1726C41.1409 36.8952 35.6833 41.7595 31.2708 47.5119C26.6698 53.5101 23.2954 60.3565 21.3402 67.6602C19.385 74.9639 18.8873 82.5819 19.8756 90.0792C20.8233 97.268 23.1193 104.211 26.6401 110.544C26.8905 110.994 27.4619 111.147 27.9082 110.889C28.2882 110.67 28.4629 110.214 28.3339 109.795C20.1012 83.0435 27.9522 53.7105 48.4428 34.6614Z" fill="url(#paint0_linear_740_330)"/>
<defs>
<linearGradient id="paint0_linear_740_330" x1="-9.49665" y1="-84.3377" x2="186.236" y2="265.407" gradientUnits="userSpaceOnUse">
<stop stop-color="#5CFF76"/>
<stop offset="1" stop-color="#62BDFF"/>
</linearGradient>
</defs>
</svg>
